<?xml version="1.0" encoding="utf-8"?>
<!-- Generator: Adobe Illustrator 16.0.0, SVG Export Plug-In . SVG Version: 6.00 Build 0)  -->
<!DOCTYPE svg PUBLIC "-//W3C//DTD SVG 1.1//EN" "http://www.w3.org/Graphics/SVG/1.1/DTD/svg11.dtd">
<svg version="1.1" id="Layer_1" xmlns="http://www.w3.org/2000/svg" xmlns:xlink="http://www.w3.org/1999/xlink" x="0px" y="0px"
	 width="21px" height="25.97px" viewBox="0 0 21 25.97" enable-background="new 0 0 21 25.97" xml:space="preserve">
<path fill="#FFCC00" d="M20.035,3.007c-0.082,0.063-0.162,0.133-0.242,0.2c0.037-0.165-0.003-0.352-0.171-0.478
	c-0.749-0.564-1.663-1.734-2.597-1.026c-0.655,0.499-1.219,1.374-1.754,2.005c-0.039,0.045-0.077,0.092-0.116,0.139
	c-1.152-0.892-2.437-1.614-3.794-2.1c1.208-0.476,2.491-0.708,3.83-0.604c0.183,0.014,0.211-0.266,0.043-0.312
	c-1.715-0.479-3.404-0.177-4.981,0.574C9.327,1.165,8.377,1.03,7.42,1.021C6.975,1.017,6.868,1.705,7.315,1.81
	c0.528,0.124,1.052,0.245,1.568,0.373C6.467,3.774,4.407,6.275,3.057,8.322c-2.701,4.096-3.76,9.491-0.758,13.737
	c2.929,4.14,8.193,4.101,12.185,1.521c4.209-2.719,6.667-7.475,5.508-12.471c-0.367-1.582-1.083-3.078-2.051-4.408
	c0.916-1.031,1.914-2.078,2.538-3.251C20.616,3.191,20.312,2.795,20.035,3.007z M16.765,6.721c-0.039,0.049-0.077,0.099-0.116,0.146
	c-0.328,0.399-0.65,0.801-0.976,1.202c0.091-0.167,0.177-0.335,0.262-0.505c0.268-0.292,0.538-0.581,0.8-0.876
	C16.745,6.699,16.755,6.709,16.765,6.721z M3.608,13.622c0.005,0.002,0.076-0.077,0.188-0.205c0.032,0.062,0.065,0.124,0.097,0.187
	c-0.104,0.128-0.14,0.309-0.035,0.495c0.018,0.032,0.037,0.064,0.056,0.096c-0.082-0.114-0.16-0.23-0.243-0.343
	C3.711,13.772,3.695,13.661,3.608,13.622z M14.116,6.69c-0.016,0.012-0.033,0.023-0.048,0.038c-0.288,0.278-0.567,0.562-0.842,0.847
	c0.447-0.57,0.902-1.135,1.363-1.695C14.432,6.149,14.273,6.42,14.116,6.69z M7.502,15.655c0.089,0.296,0.472,0.498,0.72,0.206
	c0.098-0.115,0.196-0.229,0.292-0.346c-0.264,0.439-0.527,0.878-0.789,1.316c-0.118-0.336-0.25-0.666-0.391-0.99
	c0.049-0.033,0.094-0.072,0.127-0.125C7.476,15.696,7.489,15.676,7.502,15.655z M5.306,12.662c-0.111-0.194-0.223-0.387-0.339-0.579
	c-0.004-0.008-0.01-0.013-0.015-0.021c0.063-0.075,0.127-0.15,0.186-0.219c0.071,0.282,0.151,0.559,0.238,0.834
	C5.354,12.67,5.329,12.666,5.306,12.662z M4.352,12.768c0.156,0.339,0.31,0.679,0.463,1.019c-0.082-0.08-0.16-0.161-0.245-0.239
	c-0.06-0.055-0.124-0.088-0.192-0.105c-0.094-0.124-0.188-0.249-0.283-0.372C4.176,12.975,4.262,12.874,4.352,12.768z M6.519,17.764
	c0.185,0.42,0.349,0.855,0.486,1.307c0.02,0.068,0.054,0.12,0.095,0.167c-0.014,0.021-0.029,0.04-0.044,0.06
	c-0.653-1.044-1.266-2.128-1.908-3.188C5.573,16.685,6.028,17.237,6.519,17.764z M9.024,16.44c0.103-0.021,0.199-0.083,0.269-0.198
	c0.668-1.14,1.377-2.248,2.124-3.33c0.014,0.122,0.09,0.224,0.192,0.292c-1.045,1.35-2.079,2.711-3.094,4.086
	C8.685,17.008,8.854,16.724,9.024,16.44z M18.169,8.875c2.152,4.34,1.171,9.221-2.357,12.504c-3.254,3.027-8.656,4.69-12.093,1.012
	c-3.18-3.404-2.829-8.406-0.755-12.268c1.523-2.833,3.949-5.947,6.94-7.669c1.224,0.346,2.409,0.779,3.55,1.457
	c0.365,0.217,0.719,0.454,1.061,0.704c-0.4,0.482-0.797,0.968-1.188,1.458c-2.21,2.766-4.282,5.643-6.198,8.62
	c-0.637-1.201-1.081-2.45-1.41-3.784c-0.065-0.262-0.455-0.393-0.642-0.168c-0.557,0.674-1.57,1.536-1.91,2.332
	c-0.162,0.375-0.174,0.47,0.002,0.821c0.015,0.027,0.035,0.05,0.059,0.068c0.82,2.21,2.216,4.305,3.439,6.306
	c0.181,0.293,0.547,0.251,0.735,0c2.209-2.964,4.408-5.929,6.696-8.832c1.045-1.326,2.103-2.642,3.171-3.95
	c0.013-0.017,0.028-0.033,0.042-0.05C17.631,7.892,17.92,8.372,18.169,8.875z M19.167,3.799c0.014-0.115,0.018-0.227,0.006-0.331
	c0.005,0.002,0.009,0.006,0.014,0.009c0.072,0.055,0.143,0.079,0.213,0.081C19.319,3.635,19.246,3.72,19.167,3.799z"/>
</svg>
