<?xml version="1.0" encoding="utf-8"?>
<!-- Generator: Adobe Illustrator 16.0.0, SVG Export Plug-In . SVG Version: 6.00 Build 0)  -->
<!DOCTYPE svg PUBLIC "-//W3C//DTD SVG 1.1//EN" "http://www.w3.org/Graphics/SVG/1.1/DTD/svg11.dtd">
<svg version="1.1" id="Layer_1" xmlns="http://www.w3.org/2000/svg" xmlns:xlink="http://www.w3.org/1999/xlink" x="0px" y="0px"
	 width="154.25px" height="158.25px" viewBox="0 0 154.25 158.25" enable-background="new 0 0 154.25 158.25" xml:space="preserve">
<path fill="#FFFFFF" d="M143.827,72.798h-17.562c-4.579,0-8.3,3.718-8.3,8.323v0.888c0,4.605,3.721,8.325,8.3,8.325h17.562
	c4.579,0,8.298-3.719,8.298-8.325v-0.914C152.125,76.516,148.406,72.798,143.827,72.798L143.827,72.798z M152.125,60.375v0.939
	c0,4.578-3.719,8.297-8.298,8.297h-17.562c-4.579,0-8.325-3.691-8.325-8.297V60.4c0-4.605,3.746-8.3,8.325-8.3h2.051v-0.025h4.529
	V18.042H57.161v18.573c7.235-4.077,13.588-7.595,16.701-9.189c9.817-5.108,15.46,1.116,13.765,8.48
	C86.311,41.6,76.671,47.854,66.5,55.723c-2.027,1.569-5.518,3.867-9.34,6.297v75.405h75.684v-5.643h-6.58
	c-4.605,0-8.325-3.72-8.325-8.301v-0.91c0-4.604,3.719-8.299,8.325-8.299H143.8c4.605,0,8.325,3.694,8.325,8.299v0.892
	c0,4.6-3.719,8.319-8.325,8.319h-3.643v14.574c0,5.77-4.731,10.502-10.501,10.502H60.347c-5.764,0-10.499-4.732-10.499-10.502
	v-11.943H37.221c0,0-18.649-0.075-28.748-15.333c-0.098-0.179-0.227-0.305-0.322-0.456c-0.437-0.684-0.81-1.391-1.192-2.1
	c-0.333-0.608-0.655-1.266-0.958-1.924c-0.308-0.633-0.586-1.239-0.864-1.896c-0.532-1.342-0.99-2.759-1.392-4.277
	c-0.13-0.432-0.202-0.937-0.303-1.393c-0.305-1.314-0.557-2.682-0.76-4.123c-0.075-0.532-0.154-1.088-0.227-1.671
	c-0.18-1.948-0.33-3.973-0.33-6.174c0-24.541,11.467-34.944,19.285-38.158c0.045-0.025,14.446-8.271,28.438-16.169V11.893
	c0-5.769,4.734-10.501,10.499-10.501h69.309c5.77,0,10.501,4.733,10.501,10.501V52.1h3.669
	C148.406,52.075,152.125,55.794,152.125,60.375L152.125,60.375z M89.752,146.356c0,2.91,2.354,5.264,5.263,5.264
	c2.911,0,5.238-2.354,5.238-5.264s-2.328-5.263-5.238-5.263C92.106,141.094,89.752,143.446,89.752,146.356L89.752,146.356z
	 M107.364,10.223c0-0.705-0.557-1.261-1.266-1.261H83.932c-0.709,0-1.288,0.557-1.288,1.261c0,0.706,0.579,1.263,1.288,1.263h22.166
	C106.782,11.486,107.364,10.929,107.364,10.223L107.364,10.223z M143.827,93.548h-17.562c-4.579,0-8.3,3.719-8.3,8.3v0.911
	c0,4.605,3.721,8.3,8.3,8.3h17.562c4.579,0,8.298-3.694,8.298-8.3v-0.911C152.125,97.267,148.406,93.548,143.827,93.548
	L143.827,93.548z M143.827,93.548"/>
</svg>
