<?xml version="1.0" encoding="utf-8"?>
<!-- Generator: Adobe Illustrator 16.0.0, SVG Export Plug-In . SVG Version: 6.00 Build 0)  -->
<!DOCTYPE svg PUBLIC "-//W3C//DTD SVG 1.1//EN" "http://www.w3.org/Graphics/SVG/1.1/DTD/svg11.dtd">
<svg version="1.1" xmlns="http://www.w3.org/2000/svg" xmlns:xlink="http://www.w3.org/1999/xlink" x="0px" y="0px" width="246px"
	 height="83px" viewBox="0 0 246 83" enable-background="new 0 0 246 83" xml:space="preserve">
<g id="Fondo">
</g>
<g id="Guías">
</g>
<g id="Primer_plano">
	<g>
		<path fill="#FFFFFF" d="M45.772,61.688l0.121-1.095h3.156l-1.255,16.603c0,0-18.517,0.008-27.309,0.008h-15.7v-2.949h0.729
			c2.805,0,4.638-0.617,5.501-1.857c0.866-1.236,1.296-3.855,1.296-7.854V16.887c0-3.934-0.438-6.51-1.313-7.733
			C10.118,7.931,8.293,7.32,5.515,7.32H4.786v-3h23.226v3h-0.688c-2.805,0-4.646,0.61-5.523,1.833
			c-0.877,1.224-1.313,3.8-1.313,7.733v47.657c0,3.206,0.983,5.377,2.954,6.521c1.967,1.144,5.719,1.716,11.246,1.716h1.982
			c3.319,0,5.448-0.765,6.395-2.287C44.437,68.243,45.341,65.305,45.772,61.688z"/>
		<path fill="#FFFFFF" d="M47.827,29.226l15.051-6.427V64.64c0,3.936,0.443,6.521,1.334,7.758c0.891,1.24,2.752,1.857,5.584,1.857
			h0.646v2.949H47.827v-2.949h0.808c2.753,0,4.558-0.609,5.419-1.832c0.866-1.221,1.297-3.816,1.297-7.783V43.745
			c0-4.795-0.234-7.736-0.709-8.833c-0.469-1.093-2.044-2.355-4.713-3.784l-2.102-1.188V29.226z"/>
		<path fill="#FFFFFF" d="M93.073,78.68h-2.709L73.128,36.508c-1.73-4.031-3.037-6.625-3.926-7.782
			c-0.891-1.157-2.013-1.738-3.357-1.738h-0.607v-2.951h18.814v2.951h-0.729c-2.645,0-3.968,0.778-3.968,2.332
			c0,1.049,0.741,3.414,2.229,7.093l12.135,30.036l10.603-29.988c1.158-3.174,1.737-5.346,1.737-6.52
			c0-1.967-1.456-2.953-4.368-2.953h-0.686v-2.951h15.091v2.951h-0.608c-1.266,0-2.382,0.667-3.34,2
			c-0.957,1.331-2.109,3.824-3.457,7.473L93.073,78.68z"/>
		<path fill="#FFFFFF" d="M122.925,31.008c2.333-3.662,5.202-5.496,8.603-5.496c2.754,0,5.004,1.32,6.758,3.95
			c1.752,2.635,2.631,6.03,2.631,10.187c0,2.7-0.803,4.403-2.41,5.119c-1.604,0.713-5.426,1.069-11.472,1.069h-8.377
			C119.169,39.616,120.589,34.673,122.925,31.008z M135.776,72.78c-4.906,0-9.026-2.084-12.343-6.26
			c-3.318-4.174-4.979-9.34-4.979-15.493c0-0.415,0.012-1.16,0.041-2.241h31v-1.522c0-7.773-1.559-13.833-4.674-18.181
			s-7.479-6.522-13.09-6.522c-6.235,0-11.421,2.664-15.563,7.997c-4.14,5.331-6.21,12.026-6.21,20.087
			c0,8.155,2.154,14.866,6.475,20.136c4.313,5.268,9.819,7.899,16.512,7.899c5.559,0,12.621-2.231,18.363-6.724l-1.168-3.697
			C145.259,71.272,140.472,72.78,135.776,72.78z"/>
		<path fill="#FFFFFF" d="M174.974,68.161c-2.564,3.334-5.354,4.998-8.377,4.998c-1.807,0-3.377-0.84-4.711-2.52
			c-1.334-1.684-2.002-3.667-2.002-5.953c0-3.49,0.977-6.163,2.93-8.02c1.955-1.857,6.064-3.943,12.322-6.262l2.305-0.856v9.521
			C177.44,62.94,176.618,65.974,174.974,68.161z M180.741,75.969c1.359,1.806,3.174,2.711,5.441,2.711
			c2.613,0,5.242-0.872,7.887-2.615v-2.811c-0.969,0.161-1.859,0.239-2.67,0.239c-2.562,0-4.277-0.951-5.137-2.854
			c-0.861-1.906-1.291-5.729-1.291-11.475V36.603c0-4.951-1.016-8.536-3.037-10.757c-2.025-2.188-5.316-3.285-9.873-3.285
			c-5.502,0-10.104,1.667-13.797,4.999c-3.75,3.426-5.623,7.044-5.623,10.853v1.427l8.699-3.285v-2.378
			c0-2.509,0.617-4.379,1.861-5.618c1.24-1.238,3.1-1.855,5.582-1.855c2.4,0,4.422,0.714,6.068,2.144
			c1.076,0.889,1.781,1.974,2.105,3.26c0.32,1.285,0.482,3.561,0.482,6.829v7.477l-5.541,1.9
			c-7.201,2.415-12.371,5.006-15.498,7.784c-3.129,2.776-4.693,6.147-4.693,10.114c0,3.588,0.984,6.561,2.955,8.927
			c1.969,2.363,4.436,3.543,7.4,3.543c2.971,0,5.777-0.905,8.439-2.711c2.654-1.81,5.17-4.522,7.545-8.142
			C178.481,71.446,179.378,74.159,180.741,75.969z"/>
		<path fill="#FFFFFF" d="M203.548,36.554V64.64c0,3.967,0.447,6.562,1.355,7.783c0.9,1.223,2.793,1.832,5.682,1.832h0.527v2.949
			h-22.619v-2.949h0.73c2.775,0,4.605-0.609,5.484-1.832c0.873-1.221,1.311-3.816,1.311-7.783V43.217
			c0-4.378-0.27-7.185-0.811-8.424c-0.537-1.238-2.006-2.46-4.406-3.665l-2.309-1.188v-0.715l15.055-6.616v10.995
			c3.234-3.681,6.303-6.44,9.201-8.284c2.9-1.838,5.617-2.76,8.154-2.76c3.668,0,6.703,1.476,9.102,4.427
			c2.451,3.015,3.686,8.505,3.686,16.47V64.64c0,3.967,0.443,6.562,1.332,7.783c0.893,1.223,2.764,1.832,5.625,1.832h0.566v2.949
			h-22.576v-2.949h0.648c2.83,0,4.684-0.617,5.561-1.857c0.879-1.236,1.316-3.822,1.316-7.758V43.269
			c0-4.696-0.654-8.095-1.963-10.189c-1.311-2.094-3.445-3.139-6.412-3.139c-2.156,0-4.426,0.546-6.795,1.639
			C208.614,32.676,206.136,34.333,203.548,36.554z"/>
		<circle fill-rule="evenodd" clip-rule="evenodd" fill="#FFFFFF" cx="57.761" cy="10.792" r="5.351"/>
	</g>
</g>
<g id="Ilust.">
</g>
</svg>
