<?xml version="1.0" encoding="utf-8"?>
<!-- Generator: Adobe Illustrator 16.0.0, SVG Export Plug-In . SVG Version: 6.00 Build 0)  -->
<!DOCTYPE svg PUBLIC "-//W3C//DTD SVG 1.1//EN" "http://www.w3.org/Graphics/SVG/1.1/DTD/svg11.dtd">
<svg version="1.1" xmlns="http://www.w3.org/2000/svg" xmlns:xlink="http://www.w3.org/1999/xlink" x="0px" y="0px" width="246px"
	 height="83px" viewBox="0 0 246 83" enable-background="new 0 0 246 83" xml:space="preserve">
<g id="Fondo">
</g>
<g id="Guías">
</g>
<g id="Primer_plano">
	<g>
		<g opacity="0.75">
			<g>
				<defs>
					<rect id="SVGID_1_" x="4.654" y="5.455" width="238.2" height="72.09"/>
				</defs>
				<clipPath id="SVGID_2_">
					<use xlink:href="#SVGID_1_"  overflow="visible"/>
				</clipPath>
				<g clip-path="url(#SVGID_2_)">
					<defs>
						<rect id="SVGID_3_" x="4.654" y="5.455" width="238.202" height="72.09"/>
					</defs>
					<clipPath id="SVGID_4_">
						<use xlink:href="#SVGID_3_"  overflow="visible"/>
					</clipPath>
					<g transform="matrix(1 0 0 1 0 4.768372e-07)" clip-path="url(#SVGID_4_)">
						
							<image overflow="visible" width="4117" height="1246" xlink:href="1ACD611D45EB166F.png"  transform="matrix(0.0579 0 0 0.0579 4.6538 5.4546)">
						</image>
					</g>
				</g>
			</g>
		</g>
		<path fill="#60B846" d="M76.177,16.415c-1.248,0.153-2.205,1.307-2.131,2.559l1.908,31.918c0.075,1.255,0.252,3.301,0.395,4.55
			c0,0,1.957,17.278,24.979,15.93l0.724-0.004c23.021-1.35,22.946-18.735,22.946-18.735c-0.004-1.256-0.069-3.312-0.141-4.564
			l-1.799-30.862c-0.072-1.255-1.143-2.098-2.38-1.876l-16.845,3.028c-1.236,0.223-2.188,1.429-2.113,2.683l1.287,21.609
			c0.282,4.834-4.832,5.133-5.115,0.3c-0.283-4.831-1.588-26.726-1.588-26.726c-0.076-1.252-1.156-2.151-2.401-2L76.177,16.415z"/>
		<path fill="#EE8222" d="M131.529,10.562c0.039-1.322,1.146-2.295,2.463-2.163l19.105,1.925c1.314,0.133,2.355,1.321,2.311,2.644
			l-0.174,5.184c-0.043,1.322,0.729,1.683,1.717,0.807l8.75-7.772c0.988-0.877,2.793-1.18,4.016-0.667l14.963,6.281
			c1.221,0.513,1.463,1.705,0.541,2.653l-18.082,18.549c-0.924,0.946-1.035,2.592-0.25,3.652l15.699,21.241
			c0.783,1.062,0.439,2.371-0.77,2.908l-15.467,6.875c-1.205,0.539-2.84,0.111-3.629-0.951l-7.229-9.715
			c-0.787-1.062-1.471-0.85-1.516,0.473l-0.123,3.57c-0.045,1.322-1.164,2.41-2.486,2.416l-19.195,0.111
			c-1.32,0.008-2.371-1.066-2.33-2.389L131.529,10.562z"/>
		<path fill="#A7CE38" d="M181.305,44.41c-3.029-15.343,7.201-30.286,22.859-33.377c15.654-3.091,30.801,6.843,33.828,22.188
			c3.031,15.343-7.207,30.286-22.857,33.377C199.482,69.688,184.332,59.757,181.305,44.41 M214.344,42.304
			c4.379-0.868,7.23-5.124,6.367-9.507c-0.867-4.385-5.121-7.235-9.506-6.372c-4.381,0.869-7.234,5.123-6.369,9.505
			C205.701,40.317,209.957,43.166,214.344,42.304"/>
		<path fill="#EE8222" d="M17.041,11.125c0.279-1.293,1.535-2.016,2.795-1.611c0,0,3.85,1.243,13.297,2.73
			c9.447,1.485,33.027,0.592,33.027,0.592c1.322-0.049,2.443,0.99,2.494,2.312l0.231,6.05c0.052,1.32,0.133,3.481,0.183,4.802
			l0.234,6.053c0.049,1.319-0.812,2.994-1.918,3.72l-6.711,4.41c-1.105,0.724-2.914,1.913-4.018,2.637l-6.713,4.411
			c-1.105,0.725-0.929,1.368,0.393,1.426l5.891,0.263c1.319,0.06,3.48,0.156,4.802,0.215l5.89,0.264
			c1.319,0.06,2.219,1.172,1.996,2.475l-1.224,7.172c-0.223,1.303-0.585,3.434-0.81,4.737l-1.223,7.174
			c-0.224,1.301-1.484,2.32-2.805,2.262L38.769,72.16c-1.32-0.061-3.482-0.154-4.803-0.213L9.882,70.887
			c-1.32-0.057-2.353-1.184-2.293-2.506l0.227-5.033c0.058-1.322,0.154-3.483,0.214-4.803l0.224-5.033
			c0.061-1.321,0.973-3.05,2.029-3.847l8.799-6.616c1.058-0.793,2.785-2.093,3.843-2.889l8.798-6.615
			c1.059-0.795,0.84-1.497-0.479-1.562l-5.653-0.272c-1.319-0.063-3.482-0.166-4.802-0.229l-5.653-0.273
			c-1.319-0.064-2.173-1.174-1.895-2.465l1.394-6.46c0.28-1.292,0.735-3.407,1.016-4.699L17.041,11.125z"/>
		<path fill="#FFFFFF" d="M71.581,12.634c-1.254,0.066-2.221,1.142-2.146,2.396l1.982,33.528c0.073,1.253,0.25,3.3,0.391,4.548
			c0,0,1.959,17.278,24.98,15.93l0.725-0.004c23.021-1.35,22.946-18.736,22.946-18.736c-0.006-1.255-0.069-3.309-0.142-4.563
			l-1.797-30.861c-0.072-1.254-1.151-2.138-2.395-1.961l-16.854,2.392c-1.244,0.176-2.202,1.347-2.126,2.601l1.321,22.413
			c0.282,4.832-4.832,5.132-5.117,0.299c-0.281-4.831-1.588-26.723-1.588-26.723c-0.072-1.256-1.16-2.229-2.416-2.166L71.581,12.634
			z"/>
		<path fill="#FFFFFF" d="M127.064,7.844c0.039-1.32,1.15-2.293,2.465-2.162l19.104,1.924c1.314,0.133,2.355,1.322,2.311,2.644
			l-0.174,5.183c-0.045,1.322,0.727,1.685,1.717,0.807l8.752-7.773c0.988-0.877,2.814-1.227,4.057-0.778l15.764,5.698
			c1.242,0.447,1.502,1.59,0.578,2.535l-18.961,19.365c-0.926,0.945-1.037,2.589-0.252,3.652l15.699,21.238
			c0.785,1.062,0.439,2.371-0.766,2.91l-15.469,6.875c-1.209,0.535-2.842,0.107-3.631-0.953l-7.227-9.714
			c-0.789-1.062-1.473-0.85-1.518,0.474l-0.123,3.573c-0.043,1.32-1.164,2.408-2.486,2.416l-19.195,0.109
			c-1.322,0.006-2.369-1.068-2.33-2.391L127.064,7.844z"/>
		<path fill="#FFFFFF" d="M176.555,42.543c-3.029-15.343,7.203-30.288,22.859-33.379c15.654-3.09,30.801,6.845,33.826,22.186
			c3.035,15.347-7.205,30.291-22.854,33.38C194.732,67.82,179.584,57.89,176.555,42.543 M209.592,40.435
			c4.381-0.863,7.232-5.121,6.369-9.504c-0.865-4.383-5.119-7.234-9.506-6.37c-4.381,0.867-7.234,5.121-6.369,9.504
			C200.951,38.45,205.207,41.299,209.592,40.435"/>
		<path fill="#FFFFFF" d="M12.599,8.3c0.279-1.291,1.535-2.016,2.795-1.61c0,0,3.85,1.242,13.297,2.73
			c9.447,1.485,33.027,0.591,33.027,0.591c1.322-0.049,2.443,0.991,2.494,2.312l0.231,6.051c0.052,1.32,0.133,3.482,0.183,4.803
			l0.234,6.052c0.05,1.32-0.812,2.995-1.918,3.721l-6.711,4.41c-1.105,0.723-2.913,1.912-4.018,2.636l-6.713,4.412
			c-1.105,0.724-0.929,1.367,0.394,1.426l5.89,0.262c1.319,0.06,3.48,0.156,4.802,0.216l5.89,0.264
			c1.319,0.059,2.219,1.172,1.996,2.475l-1.224,7.171c-0.223,1.304-0.585,3.436-0.81,4.738l-1.223,7.174
			c-0.224,1.299-1.484,2.32-2.805,2.262l-24.084-1.059c-1.32-0.059-3.482-0.152-4.803-0.211L5.441,68.062
			c-1.32-0.057-2.353-1.184-2.293-2.508l0.227-5.033c0.058-1.321,0.154-3.482,0.214-4.802l0.224-5.032
			c0.061-1.322,0.973-3.05,2.03-3.847l8.798-6.617c1.059-0.792,2.785-2.093,3.843-2.889l8.798-6.615
			c1.059-0.794,0.84-1.496-0.479-1.561l-5.652-0.273c-1.32-0.063-3.483-0.165-4.803-0.229l-5.652-0.272
			c-1.32-0.065-2.174-1.174-1.895-2.466l1.393-6.46c0.28-1.291,0.735-3.406,1.016-4.698L12.599,8.3z"/>
		<path fill="#FFFFFF" d="M228.781,63.588c0-1.121,0.84-1.98,1.906-1.98c1.059,0,1.902,0.859,1.902,1.98s-0.844,1.979-1.902,1.979
			C229.621,65.566,228.781,64.709,228.781,63.588 M228.371,63.588c0,1.32,1.053,2.316,2.316,2.316c1.256,0,2.316-0.996,2.316-2.316
			s-1.061-2.318-2.316-2.318C229.424,61.27,228.371,62.268,228.371,63.588 M229.801,64.939h0.414v-1.164h0.439l0.736,1.164h0.441
			l-0.779-1.195c0.406-0.043,0.717-0.25,0.717-0.74c0-0.518-0.305-0.773-0.947-0.773h-1.021V64.939z M230.215,62.566h0.541
			c0.277,0,0.602,0.045,0.602,0.42c0,0.434-0.354,0.451-0.719,0.451h-0.424V62.566z"/>
	</g>
</g>
<g id="Ilust.">
</g>
</svg>
